<svg xmlns="http://www.w3.org/2000/svg" width="1920" height="1080" viewBox="0 0 1920 1080">
  <!-- Background -->
  <rect width="1920" height="1080" fill="#07060a"/>

  <!-- Robot Head Group -->
  <g fill="none" stroke-linejoin="round" stroke-linecap="round" transform="translate(806.4, 180) scale(2.4)">
    <g transform="translate(12.322 12.322)scale(.101)">
      <!-- Face -->
      <path stroke="#00f3ff" stroke-width="36" d="m105 673 152 14q12 1 15 14l4 67 132 10 8-61q2-11 15-15h162q13 4 15 15l8 61 132-10 4-67q3-13 15-14l152-14V427q30-39 56-81-35-59-83-108-43 20-82 47-40-37-88-64 7-51 8-102-59-28-123-42-26 43-46 89-49-7-98 0-20-46-46-89-64 14-123 42 1 51 8 102-48 27-88 64-39-27-82-47-48 49-83 108 26 42 56 81zm0 33v39c0 276 813 276 814 0v-39l-134 12-5 69q-2 10-14 13l-162 11q-12 0-16-11l-10-65H446l-10 65q-4 11-16 11l-162-11q-12-3-14-13l-5-69z"/>
      
      <!-- Mouth -->
      <path stroke="#ff007f" stroke-width="36" d="M105 673v33q407 354 814 0v-33z"/>
      
      <!-- Nose -->
      <path stroke="#ff007f" stroke-width="36" d="M483 600c0 34 58 34 58 0v-86c0-34-58-34-58 0z"/>
      
      <!-- Eyes -->
      <circle cx="299" cy="526" r="90" stroke="#ff007f" stroke-width="36"/>
      <circle cx="725" cy="526" r="90" stroke="#ff007f" stroke-width="36"/>
      
      <!-- Pupils (neon rings inside) -->
      <circle cx="307" cy="532" r="40" stroke="#ff007f" stroke-width="24"/>
      <circle cx="717" cy="532" r="40" stroke="#ff007f" stroke-width="24"/>
    </g>
  </g>

  <!-- Text: GODOT -->
  <text x="960" y="700" 
        font-family="DejaVu Sans, Liberation Sans, Arial, sans-serif" 
        font-weight="900" 
        font-size="90" 
        text-anchor="middle" 
        fill="none" 
        stroke="#00f3ff" 
        stroke-width="6" 
        letter-spacing="16">GODOT</text>

  <!-- Text: Game engine -->
  <text x="960" y="800" 
        font-family="DejaVu Sans, Liberation Sans, Arial, sans-serif" 
        font-weight="bold" 
        font-size="34" 
        text-anchor="middle" 
        fill="none" 
        stroke="#ff007f" 
        stroke-width="3" 
        letter-spacing="6">Game engine</text>
</svg>